<svg width="100" height="100" version="1.1" viewBox="0 0 700 700" xmlns="http://www.w3.org/2000/svg" xmlns:xlink="http://www.w3.org/1999/xlink">
    <g>
        <path fill="#FFF" d="m616 211.12c-16.238 16.801-84.559 56-84.559 56l-29.121-35.281c-7.2812 38.078-2.8008 216.72 0 298.48-110.88 17.359-232.96 5.0391-294.56 0 6.7188-99.121-5.0391-298.48-5.0391-298.48s-16.238 15.121-29.68 34.719c-38.082 0.5625-89.043-48.16-89.043-48.16s53.762-98.559 72.801-129.92c15.121-24.641 84.559-53.199 90.16-56.559 2.2383-1.1211 12.879-6.1602 24.641-11.762 2.2383-1.1211 4.4805 0 5.6016 1.6797 12.879 21.281 40.879 36.398 73.359 36.398s61.039-15.121 73.922-36.961c1.1211-1.6797 3.3594-2.8008 5.6016-1.6797 27.441 13.441 68.879 34.719 85.68 48.719 25.754 21.848 81.195 112.57 100.23 142.81z"/>
    </g>
</svg>
